<?xml version="1.0" encoding="UTF-8" standalone="no"?>
<!-- Created with Inkscape (http://www.inkscape.org/) -->

<svg
   width="568.56366mm"
   height="209.81119mm"
   viewBox="0 0 568.56366 209.8112"
   version="1.1"
   id="svg1"
   inkscape:version="1.3-alpha (2a5ddc9d23, 2023-03-29)"
   sodipodi:docname="wireframe.svg"
   xml:space="preserve"
   xmlns:inkscape="http://www.inkscape.org/namespaces/inkscape"
   xmlns:sodipodi="http://sodipodi.sourceforge.net/DTD/sodipodi-0.dtd"
   xmlns="http://www.w3.org/2000/svg"
   xmlns:svg="http://www.w3.org/2000/svg"
   xmlns:sketch="http://www.bohemiancoding.com/sketch/ns"><sodipodi:namedview
     id="namedview1"
     pagecolor="#ffffff"
     bordercolor="#000000"
     borderopacity="0.25"
     inkscape:showpageshadow="2"
     inkscape:pageopacity="0.0"
     inkscape:pagecheckerboard="0"
     inkscape:deskcolor="#d1d1d1"
     inkscape:document-units="mm"
     inkscape:zoom="1.4396184"
     inkscape:cx="1320.8361"
     inkscape:cy="669.96921"
     inkscape:window-width="1920"
     inkscape:window-height="1017"
     inkscape:window-x="1912"
     inkscape:window-y="-8"
     inkscape:window-maximized="1"
     inkscape:current-layer="layer1"
     showgrid="false" /><defs
     id="defs1"><marker
       style="overflow:visible"
       id="ArrowWide"
       refX="0"
       refY="0"
       orient="auto-start-reverse"
       inkscape:stockid="Wide arrow"
       markerWidth="4.0606604"
       markerHeight="6.7071066"
       viewBox="0 0 4.0606602 6.7071068"
       inkscape:isstock="true"
       inkscape:collect="always"
       preserveAspectRatio="xMidYMid"><path
         style="fill:none;stroke:context-stroke;stroke-width:1;stroke-linecap:butt"
         d="M 3,-3 0,0 3,3"
         transform="rotate(180,0.125,0)"
         sodipodi:nodetypes="ccc"
         id="path11" /></marker></defs><g
     inkscape:label="Layer 1"
     inkscape:groupmode="layer"
     id="layer1"
     transform="translate(11.356894,-17.898279)"><rect
       style="fill:#ffffff;fill-opacity:1;stroke:#000000;stroke-width:0.529167;stroke-dashoffset:0.3"
       id="rect2"
       width="160.86151"
       height="142.89053"
       x="30.590506"
       y="42.937263" /><rect
       style="fill:none;stroke:#000000;stroke-width:0.529167;stroke-dashoffset:0.3"
       id="rect1"
       width="160.59692"
       height="142.47839"
       x="30.590506"
       y="42.937271" /><g
       id="g32"><g
         id="g31"><g
           id="g29"><rect
             style="fill:none;stroke:#000000;stroke-width:0.529167;stroke-dashoffset:0.3"
             id="rect4"
             width="12.990066"
             height="10.336591"
             x="156.21906"
             y="58.41283" /><g
             id="g28"><path
               style="fill:none;stroke:#000000;stroke-width:0.529167;stroke-dashoffset:0.3"
               d="m 161.76997,60.479582 -4.09594,0.133511 0.20357,6.239973 8.3368,-0.794718 -0.51171,-4.67795 -2.9886,0.214228 z"
               id="path4" /><path
               style="fill:#000000;fill-opacity:1;stroke:#000000;stroke-width:0.529167;stroke-dashoffset:0.3"
               d="m 158.79796,62.547545 8.03856,-0.5216 -0.32993,4.030913 -8.50081,0.699328 z"
               id="path5" /></g></g><g
           id="g30"><rect
             style="fill:none;stroke:#000000;stroke-width:0.529167;stroke-dashoffset:0.3"
             id="rect3"
             width="117.9677"
             height="10.336591"
             x="50.976845"
             y="58.41283" /><text
             xml:space="preserve"
             style="font-size:6.842px;font-family:FreeSans;-inkscape-font-specification:'FreeSans, Normal';fill:#000000;fill-opacity:1;stroke:none;stroke-width:0.529167;stroke-dashoffset:0.3"
             x="52.955868"
             y="66.037407"
             id="text5"><tspan
               sodipodi:role="line"
               id="tspan5"
               style="fill:#000000;fill-opacity:1;stroke:none;stroke-width:0.529167"
               x="52.955868"
               y="66.037407">C://Path/To/File.ext</tspan></text></g></g><text
         xml:space="preserve"
         style="font-size:6.85029px;font-family:FreeSans;-inkscape-font-specification:'FreeSans, Normal';fill:#000000;fill-opacity:1;stroke:none;stroke-width:0.529166;stroke-dashoffset:0.3;stroke-opacity:1"
         x="50.845879"
         y="54.594437"
         id="text14"><tspan
           sodipodi:role="line"
           id="tspan14"
           style="fill:#000000;fill-opacity:1;stroke:none;stroke-width:0.529166"
           x="50.845879"
           y="54.594437">Input file:</tspan></text></g><g
       id="g27"
       transform="translate(0,-10.583333)"><g
         id="g26"><g
           id="g24"><rect
             style="fill:none;stroke:#000000;stroke-width:0.529167;stroke-dashoffset:0.3"
             id="rect12"
             width="12.990066"
             height="10.336591"
             x="155.48267"
             y="93.106995" /><g
             id="g23"><path
               style="fill:none;stroke:#000000;stroke-width:0.529167;stroke-dashoffset:0.3"
               d="m 161.03357,95.173752 -4.09594,0.13351 0.20357,6.239978 8.3368,-0.79472 -0.51171,-4.677948 -2.9886,0.21423 z"
               id="path12" /><path
               style="fill:#000000;fill-opacity:1;stroke:#000000;stroke-width:0.529167;stroke-dashoffset:0.3"
               d="m 158.06156,97.241712 8.03856,-0.5216 -0.32993,4.030918 -8.50081,0.69933 z"
               id="path13" /></g></g><g
           id="g25"><rect
             style="fill:none;stroke:#000000;stroke-width:0.529167;stroke-dashoffset:0.3"
             id="rect11"
             width="117.9677"
             height="10.336591"
             x="50.240448"
             y="93.106995" /><text
             xml:space="preserve"
             style="font-size:6.842px;font-family:FreeSans;-inkscape-font-specification:'FreeSans, Normal';fill:#000000;fill-opacity:1;stroke:none;stroke-width:0.529167;stroke-dashoffset:0.3"
             x="52.219471"
             y="100.73157"
             id="text13"><tspan
               sodipodi:role="line"
               id="tspan13"
               style="fill:#000000;fill-opacity:1;stroke:none;stroke-width:0.529167"
               x="52.219471"
               y="100.73157">C://Path/To/File_cleaned.ext</tspan></text></g></g><text
         xml:space="preserve"
         style="font-size:6.85029px;font-family:FreeSans;-inkscape-font-specification:'FreeSans, Normal';fill:#000000;fill-opacity:1;stroke:none;stroke-width:0.529166;stroke-dashoffset:0.3;stroke-opacity:1"
         x="50.845879"
         y="89.70359"
         id="text15"><tspan
           sodipodi:role="line"
           id="tspan15"
           style="fill:#000000;fill-opacity:1;stroke:none;stroke-width:0.529166"
           x="50.845879"
           y="89.70359">Output file:</tspan></text></g><g
       id="g33"
       transform="translate(0.27121098,-13.023961)"><rect
         style="fill:none;fill-opacity:1;stroke:#000000;stroke-width:0.529167;stroke-dashoffset:0.3;stroke-opacity:1"
         id="rect15"
         width="35.672253"
         height="11.748937"
         x="132.57932"
         y="177.46965" /><text
         xml:space="preserve"
         style="font-size:6.842px;font-family:FreeSans;-inkscape-font-specification:'FreeSans, Normal';fill:#000000;fill-opacity:1;stroke:none;stroke-width:0.529167;stroke-dashoffset:0.3"
         x="134.48474"
         y="185.9082"
         id="text16"><tspan
           sodipodi:role="line"
           id="tspan16"
           style="fill:#000000;fill-opacity:1;stroke:none;stroke-width:0.529167"
           x="134.48474"
           y="185.9082">Clean file</tspan></text></g><text
       xml:space="preserve"
       style="font-size:4.51797px;font-family:FreeSans;-inkscape-font-specification:'FreeSans, Normal';fill:#1d9800;fill-opacity:1;stroke:none;stroke-width:0.529166;stroke-dashoffset:0.3;stroke-opacity:1"
       x="137.05443"
       y="182.53761"
       id="text19"><tspan
         sodipodi:role="line"
         id="tspan19"
         style="fill:#1d9800;fill-opacity:1;stroke:none;stroke-width:0.529166"
         x="137.05443"
         y="182.53761">0 &quot; replaced</tspan></text><g
       id="g37"
       transform="translate(0,-12.700001)"><g
         id="g35"><g
           id="g38"><path
             id="rect5"
             style="opacity:0.700826;fill:none;stroke:#000000;stroke-width:0.529;stroke-linecap:square;stroke-dasharray:2.116, 4.232;stroke-dashoffset:0"
             d="M 107.86422,111.387 H 55.983663 c -3.311825,0 -5.978447,2.66662 -5.978447,5.97845 v 47.98156 c 0,3.31183 2.666622,5.97793 5.978447,5.97793 h 51.880557 z" /><path
             d="m 74.537375,137.33739 2.47879,-3.00368 v 10.81477 c 0,0.42021 0.33905,0.76002 0.75851,0.76002 0.41945,0 0.7585,-0.33981 0.7585,-0.76002 v -10.8436 l 2.50231,3.03251 c 0.29658,0.29961 0.77899,0.29961 1.07708,0 0.29658,-0.29809 0.29658,-0.78278 0,-1.08163 l -3.74929,-4.54421 c -0.15929,-0.15928 -0.36939,-0.22755 -0.57647,-0.21617 -0.20783,-0.0114 -0.41793,0.0569 -0.57646,0.21617 l -3.74929,4.54421 c -0.29734,0.29885 -0.29734,0.78354 0,1.08163 0.29733,0.29961 0.77974,0.29961 1.07632,0 z m 13.85637,6.29559 c -0.41945,0 -0.7585,0.33981 -0.7585,0.75851 v 5.30954 H 67.914102 v -5.30954 c 0,-0.4187 -0.33905,-0.75851 -0.75851,-0.75851 -0.41945,0 -0.7585,0.33981 -0.7585,0.75851 v 6.06804 c 0,0.41946 0.33905,0.75851 0.7585,0.75851 h 21.238153 c 0.41946,0 0.75851,-0.33905 0.75851,-0.75851 v -6.06804 c 0,-0.4187 -0.33905,-0.75851 -0.75851,-0.75851 z"
             id="upload"
             sketch:type="MSShapeGroup"
             style="opacity:0.704132;fill:#000000;fill-rule:evenodd;stroke:none;stroke-width:7.05556" /></g></g><g
         id="g36"><path
           id="path8"
           style="opacity:0.700826;fill:none;stroke:#000000;stroke-width:0.529167;stroke-linecap:square"
           d="m 107.86422,111.387 v 59.93794 h 54.6008 c 3.31182,0 5.97793,-2.6661 5.97793,-5.97793 v -47.98156 c 0,-3.31183 -2.66611,-5.97845 -5.97793,-5.97845 z" /><path
           id="path9"
           style="opacity:1;fill:#31ff00;fill-opacity:0.503497;stroke:#000000;stroke-width:0.529;stroke-linecap:square;stroke-dasharray:none"
           d="m 107.86422,111.387 v 59.93794 h 54.6008 c 3.31182,0 5.97793,-2.6661 5.97793,-5.97793 v -47.98156 c 0,-3.31183 -2.66611,-5.97845 -5.97793,-5.97845 z" /><g
           style="opacity:0.704132;fill:none;stroke:#000000;stroke-width:0.882262;stroke-dasharray:none;stroke-opacity:1"
           id="g7"
           transform="matrix(1.4847245,0,0,1.5755231,118.85248,122.33008)"><path
             d="m 15,19 2,2 4,-4 M 13,3 H 8.2 C 7.0799,3 6.51984,3 6.09202,3.21799 5.71569,3.40973 5.40973,3.71569 5.21799,4.09202 5,4.51984 5,5.0799 5,6.2 v 11.6 c 0,1.1201 0,1.6802 0.21799,2.108 0.19174,0.3763 0.4977,0.6823 0.87403,0.874 C 6.51984,21 7.0799,21 8.2,21 H 12 M 13,3 19,9 M 13,3 v 4.4 c 0,0.56005 0,0.84008 0.109,1.05399 0.0959,0.18816 0.2488,0.34114 0.437,0.43702 C 13.7599,9 14.0399,9 14.6,9 H 19 m 0,0 v 4.5"
             stroke="#000000"
             stroke-width="11.5328"
             stroke-linecap="round"
             stroke-linejoin="round"
             id="path1"
             style="stroke:#000000;stroke-width:0.882262;stroke-dasharray:none;stroke-opacity:1" /></g></g></g><path
       style="opacity:1;fill:#000000;fill-opacity:1;stroke:#000000;stroke-width:0.529;stroke-linecap:square;stroke-dasharray:none;stroke-dashoffset:0;stroke-opacity:1;marker-start:url(#ArrowWide)"
       d="m 171.02358,136.7149 57.44105,-0.77975"
       id="path10" /><text
       xml:space="preserve"
       style="font-weight:bold;font-size:4.93889px;font-family:Arial;-inkscape-font-specification:'Arial Bold';opacity:1;fill:#a60000;fill-opacity:1;stroke:#000000;stroke-width:0.529;stroke-linecap:square;stroke-dasharray:none;stroke-dashoffset:0;stroke-opacity:1"
       x="197.53482"
       y="127.71083"
       id="text11"><tspan
         sodipodi:role="line"
         style="font-size:4.93889px;fill:#a60000;fill-opacity:1;stroke:none;stroke-width:0.529"
         x="197.53482"
         y="127.71083"
         id="tspan12">Left side: No input file selected</tspan><tspan
         sodipodi:role="line"
         style="font-size:4.93889px;fill:#a60000;fill-opacity:1;stroke:none;stroke-width:0.529"
         x="197.53482"
         y="133.88445"
         id="tspan20">Right side: Input file is selected</tspan></text><path
       style="opacity:1;fill:#000000;fill-opacity:1;stroke:#000000;stroke-width:0.529;stroke-linecap:square;stroke-dasharray:none;stroke-dashoffset:0;stroke-opacity:1;marker-start:url(#ArrowWide)"
       d="M 167.54089,180.87904 H 228.4682"
       id="path20"
       sodipodi:nodetypes="cc" /><text
       xml:space="preserve"
       style="font-weight:bold;font-size:4.93889px;font-family:Arial;-inkscape-font-specification:'Arial Bold';opacity:1;fill:#a60000;fill-opacity:1;stroke:#000000;stroke-width:0.529;stroke-linecap:square;stroke-dasharray:none;stroke-dashoffset:0;stroke-opacity:1"
       x="196.12679"
       y="164.33745"
       id="text22"><tspan
         sodipodi:role="line"
         style="font-size:4.93889px;fill:#a60000;fill-opacity:1;stroke:none;stroke-width:0.529"
         x="196.12679"
         y="164.33745"
         id="tspan22">Inform how many &quot; were</tspan><tspan
         sodipodi:role="line"
         style="font-size:4.93889px;fill:#a60000;fill-opacity:1;stroke:none;stroke-width:0.529"
         x="196.12679"
         y="170.51106"
         id="tspan32">replaced.</tspan><tspan
         sodipodi:role="line"
         style="font-size:4.93889px;fill:#a60000;fill-opacity:1;stroke:none;stroke-width:0.529"
         x="196.12679"
         y="176.68468"
         id="tspan33" /></text><rect
       style="fill:#ffffff;fill-opacity:1;stroke:#4a4a4a;stroke-width:1.029;stroke-linecap:square;stroke-opacity:0.752941"
       id="rect58"
       width="259.72534"
       height="117.16399"
       x="276.36816"
       y="100.55101" /><g
       id="g6"
       inkscape:export-filename="Assets\upload_file_decal.png"
       inkscape:export-xdpi="96"
       inkscape:export-ydpi="96"
       transform="matrix(0.99309015,0,0,0.98795368,63.188851,62.188947)"
       style="stroke-width:1.00958"><rect
         style="opacity:1;fill:none;fill-opacity:1;stroke:#4b4b4b;stroke-width:1.03886;stroke-linecap:square;stroke-dasharray:8.31079, 8.31079;stroke-dashoffset:0;stroke-opacity:1"
         id="rect6"
         width="78.796753"
         height="39.129288"
         x="220.94185"
         y="49.104958"
         ry="7.9106054" /><path
         d="m 258.08178,66.063018 1.72932,-1.959114 v 7.053803 c 0,0.274076 0.2365,0.495714 0.52915,0.495714 0.29263,0 0.52917,-0.221633 0.52917,-0.495714 V 64.0851 l 1.74573,1.977918 c 0.20701,0.195429 0.54347,0.195429 0.75141,0 0.20699,-0.194439 0.20699,-0.51056 0,-0.705481 l -2.61566,-2.963906 c -0.11102,-0.103897 -0.2577,-0.148406 -0.40221,-0.140993 -0.14504,-0.0074 -0.29155,0.03713 -0.40212,0.140993 l -2.61569,2.963906 c -0.20754,0.194921 -0.20754,0.511054 0,0.705481 0.20755,0.195429 0.54399,0.195429 0.7509,0 z m 9.66682,4.106222 c -0.29263,0 -0.52916,0.221631 -0.52916,0.49473 v 3.463084 H 253.46108 V 70.66397 c 0,-0.273094 -0.2365,-0.49473 -0.52919,-0.49473 -0.29262,0 -0.52916,0.221631 -0.52916,0.49473 v 3.957805 c 0,0.273588 0.23651,0.49473 0.52916,0.49473 h 14.81671 c 0.29262,0 0.52913,-0.221149 0.52913,-0.49473 V 70.66397 c 0,-0.273094 -0.23649,-0.49473 -0.52913,-0.49473 z"
         id="upload-7"
         sketch:type="MSShapeGroup"
         style="opacity:1;fill:#4b4b4b;fill-opacity:1;fill-rule:evenodd;stroke:none;stroke-width:7.12309" /><text
         xml:space="preserve"
         style="font-weight:bold;font-size:4.9389px;font-family:Arial;-inkscape-font-specification:'Arial Bold';opacity:1;fill:#4b4b4b;fill-opacity:1;stroke:none;stroke-width:0.534065;stroke-linecap:square;stroke-dasharray:none;stroke-dashoffset:0;stroke-opacity:1"
         x="239.13135"
         y="80.900398"
         id="text6"><tspan
           sodipodi:role="line"
           id="tspan6"
           style="fill:#4b4b4b;fill-opacity:1;stroke:none;stroke-width:0.534065;stroke-dasharray:none;stroke-dashoffset:0"
           x="239.13135"
           y="80.900398">Drag and drop file</tspan></text></g><rect
       style="fill:#000000;fill-opacity:1;stroke:#4a4a4a;stroke-width:1.029;stroke-linecap:square;stroke-opacity:0.752941"
       id="rect61"
       width="46.667305"
       height="49.869316"
       x="195.8694"
       y="20.052248" /><g
       id="g42"
       inkscape:export-filename="Assets\icon.png"
       inkscape:export-xdpi="96"
       inkscape:export-ydpi="96"
       transform="translate(-57.556198,0.73375878)"><g
         id="g39"
         inkscape:export-filename="Assets\icon.png"
         inkscape:export-xdpi="96"
         inkscape:export-ydpi="96"><rect
           style="fill:#ffffff;fill-opacity:1;stroke:none;stroke-width:1.32292;stroke-linecap:square;stroke-dasharray:none;stroke-dashoffset:0;stroke-opacity:1"
           id="rect8"
           width="26.020226"
           height="26.072924"
           x="321.73743"
           y="22.591433"
           ry="3.369489" /><g
           style="fill:#f0af2a;fill-opacity:1;stroke-width:6.25244"
           id="g34"
           transform="matrix(0.67638578,0,0,0.67775569,317.82247,22.311944)"><path
             d="M 46.4375,0.03125 C 45.539063,0.0390625 44.695313,0.398438 44.21875,1.125 L 36.625,15.40625 c 0.5625,0.195313 1.828125,0.757813 6.03125,2.65625 l 0.0625,0.03125 c 0.726563,0.328125 1.28125,0.5625 1.5,0.65625 0.07422,0.03516 0.144531,0.08984 0.21875,0.125 L 49.96875,3.5625 C 50.316406,2.351563 49.449219,0.957031 48.0625,0.40625 47.546875,0.148438 46.976563,0.0273438 46.4375,0.03125 Z M 4,8 C 1.792969,8 0,9.792969 0,12 0,14.207031 1.792969,16 4,16 6.207031,16 8,14.207031 8,12 8,9.792969 6.207031,8 4,8 Z m 9,3 c -1.105469,0 -2,0.894531 -2,2 0,1.105469 0.894531,2 2,2 1.105469,0 2,-0.894531 2,-2 0,-1.105469 -0.894531,-2 -2,-2 z m 19.15625,5.625 c -1.933594,0.144531 -3.617187,1.105469 -4.8125,2.78125 0.753906,1.269531 2.074219,2.820313 3.9375,2.78125 0.492188,-0.01953 0.90625,0.335938 1,0.8125 0.378906,0.589844 2.707031,1.636719 3.375,1.375 0.28125,-0.109375 0.582031,-0.08594 0.84375,0.0625 0.261719,0.148438 0.449219,0.390625 0.5,0.6875 0.03906,0.164063 0.476563,0.738281 1.375,1.15625 0.707031,0.328125 1.394531,0.410156 1.78125,0.21875 0.25,-0.125 0.523438,-0.128906 0.78125,-0.03125 0.261719,0.09766 0.488281,0.304688 0.59375,0.5625 0.675781,1.648438 3.761719,1.769531 5.875,1.59375 0.308594,-1.339844 0.226563,-2.734375 -0.25,-4.03125 -0.660156,-1.785156 -1.96875,-3.195312 -3.75,-4 C 43.21875,20.51172 42.613281,20.222656 41.84375,19.875 38.28125,18.265625 36.269531,17.390625 35.875,17.28125 34.570313,16.765625 33.316406,16.539063 32.15625,16.625 Z M 11.5,18 C 8.46875,18 6,20.46875 6,23.5 6,26.53125 8.46875,29 11.5,29 14.53125,29 17,26.53125 17,23.5 17,20.46875 14.53125,18 11.5,18 Z m 14.78125,3.40625 c -0.3125,0.742188 -0.667969,1.4375 -1.03125,2.09375 0.429688,1.046875 1.699219,3.472656 4.03125,2.9375 0.269531,-0.0625 0.554688,-0.02734 0.78125,0.125 0.230469,0.152344 0.359375,0.386719 0.40625,0.65625 0.06641,0.375 0.507813,0.820313 1.125,1.15625 0.875,0.472656 1.820313,0.578125 2.21875,0.40625 0.261719,-0.113281 0.554688,-0.121094 0.8125,0 0.257813,0.121094 0.453125,0.351563 0.53125,0.625 0.140625,0.476563 0.632813,0.964844 1.3125,1.3125 0.800781,0.40625 1.714844,0.554688 2.3125,0.34375 0.460938,-0.160156 0.953125,0.03516 1.1875,0.46875 0.882813,1.636719 3.78125,1.8125 6.03125,1.65625 0.285156,-0.8125 0.550781,-1.648437 0.8125,-2.53125 -0.269531,0.01563 -0.550781,0.03125 -0.84375,0.03125 -2.09375,0 -4.597656,-0.414062 -5.84375,-2.125 -0.84375,0.113281 -1.8125,-0.07031 -2.78125,-0.5625 -0.703125,-0.359375 -1.476562,-0.910156 -1.9375,-1.59375 -1.273437,0 -2.738281,-0.707031 -3.46875,-1.15625 -0.566406,-0.347656 -1.007812,-0.691406 -1.28125,-1.0625 -1.984375,-0.183594 -3.402344,-1.476562 -4.375,-2.78125 z M 24,25.46875 C 17.800781,34.082031 7.214844,33.828125 7.09375,33.8125 6.699219,33.777344 6.3125,33.988281 6.125,34.34375 5.9375,34.699219 5.964844,35.125 6.21875,35.4375 c 1.785156,2.203125 3.703125,4.066406 5.65625,5.65625 0.921875,0.183594 6.722656,1.003906 12.46875,-5.65625 0.359375,-0.417969 0.988281,-0.453125 1.40625,-0.09375 0.417969,0.359375 0.453125,0.988281 0.09375,1.40625 -4.007812,4.644531 -8.234375,6.097656 -11.1875,6.40625 2.46875,1.664063 4.957031,2.921875 7.28125,3.875 1.476563,-0.308594 6.429688,-1.789062 10.8125,-8.46875 0.304688,-0.460937 0.945313,-0.617187 1.40625,-0.3125 0.460938,0.304688 0.585938,0.945313 0.28125,1.40625 -3.304687,5.035156 -6.921875,7.398438 -9.46875,8.5 5.199219,1.683594 9.078125,1.832031 9.40625,1.84375 h 0.03125 c 0.1875,0 0.371094,-0.05469 0.53125,-0.15625 0.28125,-0.175781 6.070313,-3.957031 10.3125,-14.59375 -0.164062,0.0039 -0.332031,0.03125 -0.5,0.03125 -2.1875,0 -4.714844,-0.441406 -6.09375,-2.15625 -0.96875,0.117188 -2.078125,-0.105469 -3.09375,-0.625 -0.828125,-0.425781 -1.484375,-0.996094 -1.90625,-1.65625 -1.0625,0.08984 -2.210937,-0.292969 -3,-0.71875 C 29.84375,29.683594 29.207031,29.128906 28.84375,28.5 26.542969,28.621094 24.945313,27.054688 24,25.46875 Z"
             id="path1-1"
             style="fill:#f0af2a;fill-opacity:1;stroke-width:6.25244" /></g><g
           id="g41"
           style="fill:#7d7d7d;fill-opacity:1;stroke-width:0.41942"
           transform="matrix(2.3818319,0,0,2.3866559,-446.98355,-30.442394)"><text
             xml:space="preserve"
             style="font-weight:bold;font-size:2.99577px;font-family:Arial;-inkscape-font-specification:'Arial Bold';text-align:center;text-anchor:middle;opacity:1;fill:#7d7d7d;fill-opacity:1;stroke:none;stroke-width:0.110971;stroke-linecap:square;stroke-dasharray:none;stroke-dashoffset:0;stroke-opacity:1"
             x="324.96112"
             y="25.201979"
             id="text37"><tspan
               sodipodi:role="line"
               id="tspan37"
               style="fill:#7d7d7d;fill-opacity:1;stroke-width:0.110971;stroke-dasharray:none"
               x="324.96112"
               y="25.201979">Fixed</tspan></text><text
             xml:space="preserve"
             style="font-weight:bold;font-size:2.99577px;font-family:Arial;-inkscape-font-specification:'Arial Bold';text-align:center;text-anchor:middle;opacity:1;fill:#7d7d7d;fill-opacity:1;stroke:none;stroke-width:0.110971;stroke-linecap:square;stroke-dasharray:none;stroke-dashoffset:0;stroke-opacity:1"
             x="326.98019"
             y="27.652424"
             id="text38"><tspan
               sodipodi:role="line"
               id="tspan38"
               style="fill:#7d7d7d;fill-opacity:1;stroke-width:0.110971;stroke-dasharray:none"
               x="326.98019"
               y="27.652424">Length</tspan></text><text
             xml:space="preserve"
             style="font-weight:bold;font-size:2.99577px;font-family:Arial;-inkscape-font-specification:'Arial Bold';text-align:center;text-anchor:middle;opacity:1;fill:#7d7d7d;fill-opacity:1;stroke:none;stroke-width:0.110971;stroke-linecap:square;stroke-dasharray:none;stroke-dashoffset:0;stroke-opacity:1"
             x="325.73685"
             y="30.102869"
             id="text39"><tspan
               sodipodi:role="line"
               id="tspan39"
               style="fill:#7d7d7d;fill-opacity:1;stroke-width:0.110971;stroke-dasharray:none"
               x="325.73685"
               y="30.102869">File</tspan></text><text
             xml:space="preserve"
             style="font-weight:bold;font-size:2.99577px;font-family:Arial;-inkscape-font-specification:'Arial Bold';text-align:center;text-anchor:middle;opacity:1;fill:#7d7d7d;fill-opacity:1;stroke:none;stroke-width:0.110971;stroke-linecap:square;stroke-dasharray:none;stroke-dashoffset:0;stroke-opacity:1"
             x="329.52579"
             y="32.553314"
             id="text40"><tspan
               sodipodi:role="line"
               id="tspan40"
               style="fill:#7d7d7d;fill-opacity:1;stroke-width:0.110971;stroke-dasharray:none"
               x="329.52579"
               y="32.553314">Cleaner</tspan></text></g><g
           id="g40"
           transform="matrix(2.3818319,0,0,2.3866559,-446.98355,-30.442394)"
           style="stroke-width:0.41942"><text
             xml:space="preserve"
             style="font-weight:bold;font-size:2.99577px;font-family:Arial;-inkscape-font-specification:'Arial Bold';text-align:center;text-anchor:middle;opacity:1;fill:#d72600;fill-opacity:1;stroke:none;stroke-width:0.110971;stroke-linecap:square;stroke-dasharray:none;stroke-dashoffset:0;stroke-opacity:1"
             x="325.22104"
             y="25.007044"
             id="text18"><tspan
               sodipodi:role="line"
               id="tspan18"
               style="fill:#d72600;fill-opacity:1;stroke-width:0.110971;stroke-dasharray:none"
               x="325.22104"
               y="25.007044">Fixed</tspan></text><text
             xml:space="preserve"
             style="font-weight:bold;font-size:2.99577px;font-family:Arial;-inkscape-font-specification:'Arial Bold';text-align:center;text-anchor:middle;opacity:1;fill:#d72600;fill-opacity:1;stroke:none;stroke-width:0.110971;stroke-linecap:square;stroke-dasharray:none;stroke-dashoffset:0;stroke-opacity:1"
             x="327.24011"
             y="27.457489"
             id="text21"><tspan
               sodipodi:role="line"
               id="tspan21"
               style="fill:#d72600;fill-opacity:1;stroke-width:0.110971;stroke-dasharray:none"
               x="327.24011"
               y="27.457489">Length</tspan></text><text
             xml:space="preserve"
             style="font-weight:bold;font-size:2.99577px;font-family:Arial;-inkscape-font-specification:'Arial Bold';text-align:center;text-anchor:middle;opacity:1;fill:#d72600;fill-opacity:1;stroke:none;stroke-width:0.110971;stroke-linecap:square;stroke-dasharray:none;stroke-dashoffset:0;stroke-opacity:1"
             x="325.99677"
             y="29.907934"
             id="text23"><tspan
               sodipodi:role="line"
               id="tspan23"
               style="fill:#d72600;fill-opacity:1;stroke-width:0.110971;stroke-dasharray:none"
               x="325.99677"
               y="29.907934">File</tspan></text><text
             xml:space="preserve"
             style="font-weight:bold;font-size:2.99577px;font-family:Arial;-inkscape-font-specification:'Arial Bold';text-align:center;text-anchor:middle;opacity:1;fill:#d72600;fill-opacity:1;stroke:none;stroke-width:0.110971;stroke-linecap:square;stroke-dasharray:none;stroke-dashoffset:0;stroke-opacity:1"
             x="329.78571"
             y="32.358379"
             id="text24"><tspan
               sodipodi:role="line"
               id="tspan24"
               style="fill:#d72600;fill-opacity:1;stroke-width:0.110971;stroke-dasharray:none"
               x="329.78571"
               y="32.358379">Cleaner</tspan></text></g></g></g><g
       id="g48"
       inkscape:export-filename="Assets\file_ready_decal.png"
       inkscape:export-xdpi="96"
       inkscape:export-ydpi="96"
       transform="matrix(0.99309015,0,0,0.98795368,148.00502,62.188952)"
       style="stroke-width:1.00958"><rect
         style="opacity:1;fill:#97ff7f;fill-opacity:1;stroke:#2c4b25;stroke-width:1.03885;stroke-linecap:square;stroke-dasharray:none;stroke-dashoffset:0;stroke-opacity:1"
         id="rect47"
         width="78.796753"
         height="39.129288"
         x="220.94185"
         y="49.104958"
         ry="7.9106054" /><text
         xml:space="preserve"
         style="font-weight:bold;font-size:4.9389px;font-family:Arial;-inkscape-font-specification:'Arial Bold';text-align:center;text-anchor:middle;opacity:1;fill:#2c4b25;fill-opacity:1;stroke:none;stroke-width:0.534065;stroke-linecap:square;stroke-dasharray:none;stroke-dashoffset:0;stroke-opacity:1"
         x="259.98331"
         y="80.900398"
         id="text48"><tspan
           sodipodi:role="line"
           id="tspan48"
           style="text-align:center;text-anchor:middle;fill:#2c4b25;fill-opacity:1;stroke:none;stroke-width:0.534065;stroke-dasharray:none;stroke-dashoffset:0"
           x="259.98331"
           y="80.900398">File ready</tspan></text><path
         d="m 261.76134,72.51181 1.73831,1.933996 3.47661,-3.867993 m -6.95322,-13.537977 h -4.17192 c -0.97355,0 -1.46032,0 -1.83216,0.210797 -0.32709,0.185412 -0.59301,0.481274 -0.75966,0.845185 -0.18947,0.413702 -0.18947,0.955278 -0.18947,2.038413 v 11.21718 c 0,1.083136 0,1.62475 0.18947,2.038433 0.16665,0.363881 0.43257,0.659783 0.75966,0.845156 0.37184,0.210806 0.85861,0.210806 1.83216,0.210806 h 3.30277 m 0.86915,-17.40597 5.21491,5.801991 m -5.21491,-5.801991 v 4.254794 c 0,0.541566 0,0.812355 0.0948,1.019206 0.0834,0.18195 0.21624,0.32988 0.37981,0.422598 0.18592,0.105391 0.42929,0.105391 0.91609,0.105391 h 3.82427 m 0,0 v 4.351491"
         stroke="#000000"
         stroke-width="11.5328"
         stroke-linecap="round"
         stroke-linejoin="round"
         id="path1-8"
         style="opacity:1;fill:none;stroke:#2c4b25;stroke-width:1.33558;stroke-dasharray:none;stroke-opacity:1" /></g><g
       id="g1"
       transform="translate(-165.07205,0.73352463)"><rect
         style="fill:#885b00;fill-opacity:1;stroke:none;stroke-width:1.32292;stroke-linecap:square;stroke-dasharray:none;stroke-dashoffset:0;stroke-opacity:1"
         id="rect9"
         width="26.108732"
         height="26.073277"
         x="369.18372"
         y="22.591436"
         ry="3.3695345"
         inkscape:export-filename="Assets\icon2.png"
         inkscape:export-xdpi="96"
         inkscape:export-ydpi="96" /><path
         id="path14"
         style="fill:#ffffff;fill-opacity:1;stroke-width:4.23334"
         d="m 396.77179,22.333354 c -0.60976,0.0053 -1.18234,0.248613 -1.50578,0.74105 l -5.15359,9.679126 c 0.38176,0.132376 1.24061,0.513739 4.09321,1.800432 l 0.0425,0.02119 c 0.49309,0.222392 0.86939,0.3814 1.01786,0.44494 0.0504,0.02383 0.0985,0.06092 0.14881,0.08475 l 3.75358,-10.378317 c 0.23596,-0.820731 -0.35256,-1.766134 -1.29371,-2.139434 -0.34995,-0.174735 -0.73704,-0.256382 -1.1029,-0.253734 z m -9.39406,11.234607 c -0.10035,6.93e-4 -0.19973,0.0046 -0.29815,0.01189 -1.31231,0.09796 -2.45492,0.749398 -3.26618,1.885182 0.51167,0.860442 1.40737,1.911142 2.67195,1.884665 0.33404,-0.01324 0.61513,0.227881 0.67875,0.550878 0.25716,0.399775 1.83749,1.109122 2.29083,0.931739 0.19087,-0.07413 0.39483,-0.05824 0.57245,0.04237 0.17761,0.100605 0.30518,0.264916 0.33963,0.466128 0.0265,0.111196 0.32306,0.500141 0.93282,0.783425 0.47985,0.222391 0.94673,0.278042 1.20919,0.148314 0.16967,-0.08472 0.35496,-0.08738 0.52993,-0.02119 0.17764,0.06619 0.33183,0.206643 0.40341,0.381378 0.45865,1.117253 2.55266,1.19919 3.98692,1.080052 0.20944,-0.908098 0.15388,-1.853195 -0.16956,-2.73217 -0.44803,-1.209915 -1.33599,-2.165593 -2.54491,-2.710982 -0.12725,-0.0556 -0.53811,-0.251687 -1.06038,-0.487315 -2.41781,-1.090777 -3.78344,-1.68341 -4.05121,-1.75754 -0.77479,-0.305788 -1.52301,-0.461675 -2.22549,-0.456826 z m -4.28558,3.252559 c -0.21209,0.503029 -0.45346,0.974271 -0.70002,1.419054 0.29163,0.709534 1.15353,2.353313 2.73625,1.990603 0.18293,-0.04236 0.37616,-0.0185 0.52993,0.08475 0.15641,0.103254 0.24404,0.262263 0.27586,0.44494 0.045,0.254162 0.34439,0.555739 0.76326,0.783426 0.59385,0.320349 1.2359,0.391929 1.5063,0.27544 0.17764,-0.07678 0.37622,-0.08207 0.5512,0 0.17496,0.08207 0.30733,0.238427 0.36036,0.423751 0.0954,0.322999 0.42953,0.653735 0.89083,0.889364 0.54348,0.275341 1.16394,0.37603 1.56956,0.233064 0.31283,-0.108548 0.64673,0.02394 0.80579,0.317814 0.59915,1.10931 2.56668,1.228327 4.09372,1.122428 0.19353,-0.550684 0.37357,-1.117343 0.5512,-1.715681 -0.18293,0.01059 -0.37362,0.02119 -0.57245,0.02119 -1.421,0 -3.12048,-0.280629 -3.96618,-1.440241 -0.57264,0.07678 -1.22994,-0.04727 -1.88742,-0.380861 -0.4772,-0.243571 -1.00213,-0.617253 -1.31497,-1.080568 -0.86426,0 -1.85885,-0.478961 -2.35461,-0.783426 -0.38441,-0.235629 -0.68398,-0.468865 -0.86956,-0.720378 -1.34677,-0.124434 -2.30894,-1.000396 -2.96905,-1.884666 z m -1.54831,2.753357 c -1.29008,1.790007 -2.86005,3.013143 -4.41937,3.85098 l -0.42519,0.802546 -0.85763,-0.193789 c -3.03958,1.265468 -5.72164,1.201738 -5.77167,1.195292 -0.26776,-0.02383 -0.53023,0.119265 -0.65749,0.36019 -0.12725,0.240924 -0.10905,0.529249 0.0632,0.74105 1.21156,1.4932 2.51358,2.756387 3.83915,3.833926 0.62565,0.124434 4.56247,0.680089 8.46226,-3.833926 0.2439,-0.283285 0.67094,-0.307135 0.95461,-0.06356 0.28367,0.243571 0.30717,0.670159 0.0632,0.953443 -2.72006,3.147896 -5.58847,4.132758 -7.59272,4.341912 1.67551,1.127842 3.36409,1.980238 4.94151,2.626232 1.00213,-0.209153 4.3641,-1.212526 7.33864,-5.739779 0.2068,-0.312407 0.64127,-0.418382 0.95409,-0.211876 0.31282,0.206506 0.39812,0.640519 0.19134,0.952926 -2.24286,3.412649 -4.69804,5.014369 -6.42657,5.760967 3.52864,1.14108 6.16135,1.24161 6.38405,1.249553 h 0.0213 c 0.12726,0 0.25168,-0.03659 0.36038,-0.105422 0.19087,-0.119137 4.11988,-2.682332 6.999,-9.891519 -0.11134,0.0026 -0.22562,0.02119 -0.33963,0.02119 -1.48462,0 -3.19988,-0.299168 -4.13573,-1.461429 -0.65747,0.07943 -1.41021,-0.07111 -2.09949,-0.423235 -0.56204,-0.28858 -1.00739,-0.675513 -1.29372,-1.122944 -0.72111,0.06089 -1.5007,-0.198219 -2.03623,-0.486799 -0.55142,-0.299169 -0.98338,-0.675506 -1.22994,-1.101756 -1.56151,0.08207 -2.64586,-0.979274 -3.28742,-2.054167 z" /><text
         xml:space="preserve"
         style="font-weight:bold;font-size:43.7017px;font-family:Arial;-inkscape-font-specification:'Arial Bold';text-align:center;text-anchor:middle;fill:#ff0000;fill-opacity:1;stroke:none;stroke-width:0.264583;stroke-linecap:square;stroke-opacity:1"
         x="352.44861"
         y="158.15076"
         id="text47"
         transform="matrix(0.95920406,-0.27645573,0.27531403,0.96318177,0,0)"><tspan
           sodipodi:role="line"
           id="tspan47"
           style="fill:#ff0000;fill-opacity:1;stroke-width:0.264583"
           x="352.44861"
           y="158.15076">&quot;</tspan></text></g><g
       id="g2"
       transform="translate(39.811041,44.285413)"><rect
         style="fill:none;fill-opacity:1;stroke:#4b4b4b;stroke-width:1.02901;stroke-linecap:square;stroke-dasharray:none;stroke-dashoffset:0;stroke-opacity:1"
         id="rect10"
         width="78.252281"
         height="38.657925"
         x="412.40945"
         y="66.416962"
         ry="7.8153119"
         inkscape:export-filename="Assets\cleaning_decal.png"
         inkscape:export-xdpi="96"
         inkscape:export-ydpi="96" /><path
         id="path26"
         style="fill:#4b4b4b;fill-opacity:1;stroke-width:4.23333"
         d="m 475.62847,67.123209 c -0.6706,0.0058 -1.3003,0.273417 -1.65601,0.814985 l -5.66777,10.644814 c 0.41985,0.145583 1.36439,0.564995 4.50159,1.980062 l 0.0467,0.0233 c 0.54229,0.24458 0.95613,0.419452 1.11942,0.489331 0.0554,0.02621 0.10832,0.067 0.16365,0.09321 l 4.12808,-11.413764 c 0.2595,-0.902615 -0.38774,-1.942341 -1.42279,-2.352886 -0.38486,-0.192168 -0.81057,-0.281961 -1.21293,-0.279049 z m -10.33131,12.355486 c -0.11036,7.62e-4 -0.21966,0.0051 -0.32789,0.01308 -1.44324,0.107734 -2.69985,0.824166 -3.59205,2.073267 0.56272,0.946289 1.54778,2.101817 2.93853,2.072699 0.36737,-0.01456 0.6765,0.250616 0.74647,0.605839 0.28281,0.439661 2.02081,1.219779 2.51938,1.024699 0.20992,-0.08153 0.43423,-0.06405 0.62957,0.0466 0.19533,0.110642 0.33563,0.291347 0.37351,0.512634 0.0292,0.12229 0.35529,0.55004 1.02589,0.861587 0.52773,0.244579 1.04119,0.305782 1.32983,0.163111 0.1866,-0.09317 0.39038,-0.0961 0.5828,-0.0233 0.19537,0.07279 0.36494,0.22726 0.44366,0.419428 0.50441,1.228722 2.80734,1.318834 4.3847,1.187809 0.23033,-0.998699 0.16923,-2.038088 -0.18648,-3.004759 -0.49273,-1.330628 -1.46928,-2.381654 -2.79882,-2.981457 -0.13994,-0.06115 -0.59179,-0.276798 -1.16617,-0.535934 -2.65904,-1.199604 -4.16092,-1.851365 -4.4554,-1.932891 -0.85209,-0.336296 -1.67496,-0.507736 -2.44753,-0.502403 z m -4.71315,3.577068 c -0.23325,0.553216 -0.4987,1.071474 -0.76986,1.560633 0.32072,0.780324 1.26862,2.588103 3.00924,2.189206 0.20118,-0.04659 0.41369,-0.02035 0.5828,0.09321 0.17202,0.113556 0.26839,0.288429 0.30339,0.489332 0.0495,0.27952 0.37875,0.611185 0.83941,0.861589 0.6531,0.35231 1.3592,0.431031 1.65658,0.30292 0.19537,-0.08444 0.41376,-0.09026 0.6062,0 0.19241,0.09026 0.33799,0.262215 0.39631,0.466029 0.10492,0.355225 0.47238,0.718958 0.97971,0.978096 0.5977,0.302812 1.28006,0.413547 1.72615,0.256317 0.34404,-0.119378 0.71126,0.02633 0.88619,0.349522 0.65892,1.219986 2.82275,1.350878 4.50215,1.234413 0.21284,-0.605626 0.41084,-1.228821 0.60619,-1.886855 -0.20118,0.01165 -0.4109,0.0233 -0.62956,0.0233 -1.56278,0 -3.43181,-0.308627 -4.36189,-1.583934 -0.62977,0.08444 -1.35265,-0.05199 -2.07573,-0.418859 -0.52481,-0.267873 -1.10211,-0.678837 -1.44616,-1.188377 -0.95049,0 -2.04431,-0.526747 -2.58953,-0.861588 -0.42277,-0.259138 -0.75222,-0.515644 -0.95632,-0.792251 -1.48114,-0.136848 -2.5393,-1.100205 -3.26527,-2.072699 z m -1.70279,3.028059 c -1.41879,1.968597 -3.14539,3.313765 -4.86029,4.235194 l -0.46761,0.882616 -0.9432,-0.213124 c -3.34283,1.391724 -6.29248,1.321636 -6.34751,1.314547 -0.29447,-0.02621 -0.58313,0.131164 -0.72308,0.396126 -0.13995,0.264961 -0.11993,0.582052 0.0695,0.814985 1.33244,1.642177 2.76436,3.031392 4.22218,4.216437 0.68808,0.136849 5.01767,0.747942 9.30655,-4.216437 0.26823,-0.311549 0.73788,-0.337778 1.04985,-0.0699 0.31197,0.267873 0.33781,0.737021 0.0695,1.048569 -2.99144,3.461962 -6.14603,4.545084 -8.35024,4.775105 1.84267,1.24037 3.69972,2.1778 5.43452,2.88825 1.10211,-0.23002 4.79951,-1.3335 8.07082,-6.312436 0.22743,-0.343576 0.70525,-0.460124 1.04928,-0.233015 0.34403,0.227109 0.43784,0.704424 0.21043,1.048 -2.46663,3.753131 -5.16677,5.514651 -7.06775,6.335731 3.88069,1.25494 6.77607,1.3655 7.02099,1.37423 h 0.0234 c 0.13996,0 0.27679,-0.0403 0.39634,-0.11594 0.20991,-0.13102 4.53092,-2.94995 7.69729,-10.878398 -0.12245,0.0029 -0.24813,0.0233 -0.37352,0.0233 -1.63274,0 -3.51913,-0.329016 -4.54835,-1.607236 -0.72307,0.08735 -1.55091,-0.07821 -2.30896,-0.465461 -0.61811,-0.317372 -1.10789,-0.74291 -1.42279,-1.234981 -0.79306,0.06697 -1.65043,-0.217995 -2.23939,-0.535367 -0.60643,-0.329017 -1.08149,-0.742901 -1.35265,-1.211678 -1.7173,0.09026 -2.90983,-1.076977 -3.6154,-2.259112 z" /><path
         id="path17"
         style="fill:#f0af2a;fill-opacity:1;stroke-width:4.23334"
         d="m 474.38168,68.812647 c -0.60976,0.0053 -1.18234,0.248613 -1.50578,0.74105 l -5.15359,9.679126 c 0.38176,0.132376 1.24061,0.513739 4.09321,1.800432 l 0.0425,0.02119 c 0.49309,0.222392 0.86939,0.3814 1.01786,0.44494 0.0504,0.02383 0.0985,0.06092 0.14881,0.08475 l 3.75358,-10.378317 c 0.23596,-0.820731 -0.35256,-1.766134 -1.29371,-2.139434 -0.34995,-0.174735 -0.73704,-0.256382 -1.1029,-0.253734 z m -9.39406,11.234607 c -0.10035,6.93e-4 -0.19973,0.0046 -0.29815,0.01189 -1.31231,0.09796 -2.45492,0.749398 -3.26618,1.885182 0.51167,0.860442 1.40737,1.911142 2.67195,1.884665 0.33404,-0.01324 0.61513,0.227881 0.67875,0.550878 0.25716,0.399775 1.83749,1.109122 2.29083,0.931739 0.19087,-0.07413 0.39483,-0.05824 0.57245,0.04237 0.17761,0.100605 0.30518,0.264916 0.33963,0.466128 0.0265,0.111196 0.32306,0.500141 0.93282,0.783425 0.47985,0.222391 0.94673,0.278042 1.20919,0.148314 0.16967,-0.08472 0.35496,-0.08738 0.52993,-0.02119 0.17764,0.06619 0.33183,0.206643 0.40341,0.381378 0.45865,1.117253 2.55266,1.19919 3.98692,1.080052 0.20944,-0.908098 0.15388,-1.853195 -0.16956,-2.73217 -0.44803,-1.209915 -1.33599,-2.165593 -2.54491,-2.710982 -0.12725,-0.0556 -0.53811,-0.251687 -1.06038,-0.487315 -2.41781,-1.090777 -3.78344,-1.68341 -4.05121,-1.75754 -0.77479,-0.305788 -1.52301,-0.461675 -2.22549,-0.456826 z m -4.28558,3.252559 c -0.21209,0.503029 -0.45346,0.974271 -0.70002,1.419054 0.29163,0.709534 1.15353,2.353313 2.73625,1.990603 0.18293,-0.04236 0.37616,-0.0185 0.52993,0.08475 0.15641,0.103254 0.24404,0.262263 0.27586,0.44494 0.045,0.254162 0.34439,0.555739 0.76326,0.783426 0.59385,0.320349 1.2359,0.391929 1.5063,0.27544 0.17764,-0.07678 0.37622,-0.08207 0.5512,0 0.17496,0.08207 0.30733,0.238427 0.36036,0.423751 0.0954,0.322999 0.42953,0.653735 0.89083,0.889364 0.54348,0.275341 1.16394,0.37603 1.56956,0.233064 0.31283,-0.108548 0.64673,0.02394 0.80579,0.317814 0.59915,1.10931 2.56668,1.228327 4.09372,1.122428 0.19353,-0.550684 0.37357,-1.117343 0.5512,-1.715681 -0.18293,0.01059 -0.37362,0.02119 -0.57245,0.02119 -1.421,0 -3.12048,-0.280629 -3.96618,-1.440241 -0.57264,0.07678 -1.22994,-0.04727 -1.88742,-0.380861 -0.4772,-0.243571 -1.00213,-0.617253 -1.31497,-1.080568 -0.86426,0 -1.85885,-0.478961 -2.35461,-0.783426 -0.38441,-0.235629 -0.68398,-0.468865 -0.86956,-0.720378 -1.34677,-0.124434 -2.30894,-1.000396 -2.96905,-1.884666 z m -1.54831,2.753357 c -1.29008,1.790007 -2.86005,3.013143 -4.41937,3.85098 l -0.42519,0.802546 -0.85763,-0.193789 c -3.03958,1.265468 -5.72164,1.201738 -5.77167,1.195292 -0.26776,-0.02383 -0.53023,0.119265 -0.65749,0.36019 -0.12725,0.240924 -0.10905,0.529249 0.0632,0.74105 1.21156,1.4932 2.51358,2.756387 3.83915,3.833926 0.62565,0.124434 4.56247,0.680089 8.46226,-3.833926 0.2439,-0.283285 0.67094,-0.307135 0.95461,-0.06356 0.28367,0.243571 0.30717,0.670159 0.0632,0.953443 -2.72006,3.147896 -5.58847,4.132758 -7.59272,4.341912 1.67551,1.127842 3.36409,1.980236 4.94151,2.626236 1.00213,-0.20916 4.3641,-1.21253 7.33864,-5.739783 0.2068,-0.312407 0.64127,-0.418382 0.95409,-0.211876 0.31282,0.206506 0.39812,0.640519 0.19134,0.952926 -2.24286,3.412649 -4.69804,5.014373 -6.42657,5.760963 3.52864,1.14109 6.16135,1.24162 6.38405,1.24956 h 0.0213 c 0.12726,0 0.25168,-0.0366 0.36038,-0.10542 0.19087,-0.11914 4.11988,-2.682337 6.999,-9.891524 -0.11134,0.0026 -0.22562,0.02119 -0.33963,0.02119 -1.48462,0 -3.19988,-0.299168 -4.13573,-1.461429 -0.65747,0.07943 -1.41021,-0.07111 -2.09949,-0.423235 -0.56204,-0.28858 -1.00739,-0.675513 -1.29372,-1.122944 -0.72111,0.06089 -1.5007,-0.198219 -2.03623,-0.486799 -0.55142,-0.299169 -0.98338,-0.675506 -1.22994,-1.101756 -1.56151,0.08207 -2.64586,-0.979274 -3.28742,-2.054167 z" /><text
         xml:space="preserve"
         style="font-weight:bold;font-size:24.7889px;font-family:Arial;-inkscape-font-specification:'Arial Bold';text-align:center;text-anchor:middle;fill:#4b4b4b;fill-opacity:1;stroke:none;stroke-width:1.029;stroke-linecap:square"
         x="478.18918"
         y="-31.528952"
         id="text17"
         transform="matrix(0.89453909,0.27947356,-0.23969103,1.0430094,0,0)"><tspan
           sodipodi:role="line"
           id="tspan17"
           style="fill:#4b4b4b;fill-opacity:1;stroke:none;stroke-width:1.029"
           x="478.18918"
           y="-31.528952">&quot;</tspan></text><text
         xml:space="preserve"
         style="font-weight:bold;font-size:27.1567px;font-family:Arial;-inkscape-font-specification:'Arial Bold';text-align:center;text-anchor:middle;fill:#4b4b4b;fill-opacity:1;stroke:none;stroke-width:1.029;stroke-linecap:square"
         x="329.9725"
         y="298.75876"
         id="text25"
         transform="rotate(-30)"><tspan
           sodipodi:role="line"
           id="tspan25"
           style="fill:#4b4b4b;fill-opacity:1;stroke:none;stroke-width:1.029"
           x="329.9725"
           y="298.75876">&quot;</tspan></text><text
         xml:space="preserve"
         style="font-weight:bold;font-size:18.5788px;font-family:Arial;-inkscape-font-specification:'Arial Bold';text-align:center;text-anchor:middle;fill:#4b4b4b;fill-opacity:1;stroke:none;stroke-width:1.029;stroke-linecap:square"
         x="430.98801"
         y="-29.085163"
         id="text26"
         transform="matrix(0.95047334,0.26302684,-0.25467856,0.98162954,0,0)"><tspan
           sodipodi:role="line"
           id="tspan26"
           style="fill:#4b4b4b;fill-opacity:1;stroke:none;stroke-width:1.029"
           x="430.98801"
           y="-29.085163">&quot;</tspan></text><text
         xml:space="preserve"
         style="font-weight:bold;font-size:32.9674px;font-family:Arial;-inkscape-font-specification:'Arial Bold';text-align:center;text-anchor:middle;fill:#ffffff;fill-opacity:1;stroke:none;stroke-width:1.029;stroke-linecap:square"
         x="447.74677"
         y="-13.11298"
         id="text27"
         transform="rotate(15)"><tspan
           sodipodi:role="line"
           id="tspan27"
           style="fill:#ffffff;fill-opacity:1;stroke:none;stroke-width:1.029"
           x="447.74677"
           y="-13.11298">&quot;</tspan></text><text
         xml:space="preserve"
         style="font-weight:bold;font-size:22.5082px;font-family:Arial;-inkscape-font-specification:'Arial Bold';text-align:center;text-anchor:middle;fill:#ffffff;fill-opacity:1;stroke:none;stroke-width:1.029;stroke-linecap:square"
         x="330.41342"
         y="297.35782"
         id="text28"
         transform="rotate(-30)"><tspan
           sodipodi:role="line"
           id="tspan28"
           style="fill:#ffffff;fill-opacity:1;stroke:none;stroke-width:1.029"
           x="330.41342"
           y="297.35782">&quot;</tspan></text><text
         xml:space="preserve"
         style="font-weight:bold;font-size:13.3645px;font-family:Arial;-inkscape-font-specification:'Arial Bold';text-align:center;text-anchor:middle;fill:#ffffff;fill-opacity:1;stroke:none;stroke-width:1.029;stroke-linecap:square"
         x="423.9288"
         y="-30.128101"
         id="text29"
         transform="rotate(15)"><tspan
           sodipodi:role="line"
           id="tspan29"
           style="fill:#ffffff;fill-opacity:1;stroke:none;stroke-width:1.029"
           x="423.9288"
           y="-30.128101">&quot;</tspan></text></g><text
       xml:space="preserve"
       style="font-weight:bold;font-size:4.93889px;font-family:Arial;-inkscape-font-specification:'Arial Bold';opacity:1;fill:#a60000;fill-opacity:1;stroke:#000000;stroke-width:0.529;stroke-linecap:square;stroke-dasharray:none;stroke-dashoffset:0;stroke-opacity:1"
       x="460.12646"
       y="162.66837"
       id="text3"><tspan
         sodipodi:role="line"
         style="font-size:4.93889px;fill:#a60000;fill-opacity:1;stroke:none;stroke-width:0.529"
         x="460.12646"
         y="162.66837"
         id="tspan3">Visible only when cleaning</tspan></text><g
       id="g43"
       transform="translate(341.29864,-10.51356)"><rect
         style="fill:none;fill-opacity:1;stroke:#000000;stroke-width:0.529167;stroke-dashoffset:0.3;stroke-opacity:1"
         id="rect13"
         width="35.672253"
         height="11.748937"
         x="132.57932"
         y="177.46965" /><text
         xml:space="preserve"
         style="font-size:6.842px;font-family:FreeSans;-inkscape-font-specification:'FreeSans, Normal';fill:#000000;fill-opacity:1;stroke:none;stroke-width:0.529167;stroke-dashoffset:0.3"
         x="135.71249"
         y="185.23669"
         id="text30"><tspan
           sodipodi:role="line"
           id="tspan30"
           style="fill:#000000;fill-opacity:1;stroke:none;stroke-width:0.529167"
           x="135.71249"
           y="185.23669">Cleaning</tspan></text></g><g
       id="g44"
       transform="translate(165.8059,0.53797207)"><rect
         style="fill:none;fill-opacity:1;stroke:#4a4a4a;stroke-width:0.529167;stroke-dashoffset:0.3;stroke-opacity:0.752941"
         id="rect43"
         width="46.689888"
         height="11.748937"
         x="132.57932"
         y="177.46965" /><text
         xml:space="preserve"
         style="font-size:6.842px;font-family:FreeSans;-inkscape-font-specification:'FreeSans, Normal';fill:#4b4b4b;fill-opacity:1;stroke:none;stroke-width:0.529167;stroke-dashoffset:0.3"
         x="134.55804"
         y="185.25507"
         id="text43"><tspan
           sodipodi:role="line"
           id="tspan43"
           style="fill:#4b4b4b;fill-opacity:1;stroke:none;stroke-width:0.529167"
           x="134.55804"
           y="185.25507"># &quot; replaced</tspan></text></g><g
       id="g45"
       transform="translate(171.31472,-21.638075)"><rect
         style="fill:none;fill-opacity:1;stroke:#4b4b4b;stroke-width:0.529167;stroke-dashoffset:0.3;stroke-opacity:1"
         id="rect44"
         width="35.672253"
         height="11.748937"
         x="132.57932"
         y="177.46965" /><text
         xml:space="preserve"
         style="font-size:6.842px;font-family:FreeSans;-inkscape-font-specification:'FreeSans, Normal';fill:#4b4b4b;fill-opacity:1;stroke:none;stroke-width:0.529167;stroke-dashoffset:0.3"
         x="140.93419"
         y="185.89149"
         id="text44"><tspan
           sodipodi:role="line"
           id="tspan44"
           style="fill:#4b4b4b;fill-opacity:1;stroke:none;stroke-width:0.529167"
           x="140.93419"
           y="185.89149">Clean</tspan></text></g><text
       xml:space="preserve"
       style="font-weight:bold;font-size:4.93889px;font-family:Arial;-inkscape-font-specification:'Arial Bold';opacity:1;fill:#a60000;fill-opacity:1;stroke:#000000;stroke-width:0.529;stroke-linecap:square;stroke-dasharray:none;stroke-dashoffset:0;stroke-opacity:1"
       x="287.43268"
       y="174.07462"
       id="text49"><tspan
         sodipodi:role="line"
         style="font-size:4.93889px;fill:#a60000;fill-opacity:1;stroke:none;stroke-width:0.529"
         x="287.43268"
         y="174.07462"
         id="tspan46">Disabled when no input selected</tspan><tspan
         sodipodi:role="line"
         style="font-size:4.93889px;fill:#a60000;fill-opacity:1;stroke:none;stroke-width:0.529"
         x="287.43268"
         y="180.24823"
         id="tspan49" /></text><text
       xml:space="preserve"
       style="font-weight:bold;font-size:4.93889px;font-family:Arial;-inkscape-font-specification:'Arial Bold';opacity:1;fill:#a60000;fill-opacity:1;stroke:#000000;stroke-width:0.529;stroke-linecap:square;stroke-dasharray:none;stroke-dashoffset:0;stroke-opacity:1"
       x="287.61356"
       y="196.09351"
       id="text51"><tspan
         sodipodi:role="line"
         style="font-size:4.93889px;fill:#a60000;fill-opacity:1;stroke:none;stroke-width:0.529"
         x="287.61356"
         y="196.09351"
         id="tspan50">Display total characters replaced </tspan><tspan
         sodipodi:role="line"
         style="font-size:4.93889px;fill:#a60000;fill-opacity:1;stroke:none;stroke-width:0.529"
         x="287.61356"
         y="202.26712"
         id="tspan52">after finished cleaning until new </tspan><tspan
         sodipodi:role="line"
         style="font-size:4.93889px;fill:#a60000;fill-opacity:1;stroke:none;stroke-width:0.529"
         x="287.61356"
         y="208.44073"
         id="tspan53">input selected</tspan><tspan
         sodipodi:role="line"
         style="font-size:4.93889px;fill:#a60000;fill-opacity:1;stroke:none;stroke-width:0.529"
         x="287.61356"
         y="214.61435"
         id="tspan51" /></text><text
       xml:space="preserve"
       style="font-weight:bold;font-size:4.93889px;font-family:Arial;-inkscape-font-specification:'Arial Bold';opacity:1;fill:#a60000;fill-opacity:1;stroke:#000000;stroke-width:0.529;stroke-linecap:square;stroke-dasharray:none;stroke-dashoffset:0;stroke-opacity:1"
       x="206.76976"
       y="63.022614"
       id="text55"><tspan
         sodipodi:role="line"
         style="font-size:4.93889px;fill:#a60000;fill-opacity:1;stroke:none;stroke-width:0.529"
         x="206.76976"
         y="63.022614"
         id="tspan55">App Icon</tspan></text><rect
       style="fill:#4a4a4a;fill-opacity:0.752941;stroke:#4a4a4a;stroke-width:1.029;stroke-linecap:square;stroke-opacity:0.752941"
       id="rect56"
       width="6.6163363"
       height="7.3514853"
       x="-10.842394"
       y="18.412779" /><rect
       style="fill:#4a4a4a;fill-opacity:0.752941;stroke:#4a4a4a;stroke-width:1.029;stroke-linecap:square;stroke-opacity:0.752941"
       id="rect57"
       width="6.6163363"
       height="7.3514853"
       x="550.07593"
       y="219.84348" /><g
       id="g59"
       transform="translate(256.30668,-7.8626199)"
       style="stroke:#000000;stroke-opacity:1"><rect
         style="fill:none;fill-opacity:1;stroke:#000000;stroke-width:0.529167;stroke-dashoffset:0.3;stroke-opacity:1"
         id="rect59"
         width="35.672253"
         height="11.748937"
         x="132.57932"
         y="177.46965" /><text
         xml:space="preserve"
         style="font-size:6.842px;font-family:FreeSans;-inkscape-font-specification:'FreeSans, Normal';fill:#000000;fill-opacity:0.87451;stroke:none;stroke-width:0.529167;stroke-dashoffset:0.3;stroke-opacity:1"
         x="140.93419"
         y="185.89149"
         id="text59"><tspan
           sodipodi:role="line"
           id="tspan59"
           style="fill:#000000;fill-opacity:0.87451;stroke:none;stroke-width:0.529167;stroke-opacity:1"
           x="140.93419"
           y="185.89149">Clean</tspan></text></g><text
       xml:space="preserve"
       style="font-weight:bold;font-size:4.93889px;font-family:Arial;-inkscape-font-specification:'Arial Bold';opacity:1;fill:#a60000;fill-opacity:1;stroke:#000000;stroke-width:0.529;stroke-linecap:square;stroke-dasharray:none;stroke-dashoffset:0;stroke-opacity:1"
       x="375.54361"
       y="186.37498"
       id="text61"><tspan
         sodipodi:role="line"
         style="font-size:4.93889px;fill:#a60000;fill-opacity:1;stroke:none;stroke-width:0.529"
         x="375.54361"
         y="186.37498"
         id="tspan60">Enabled when input selected</tspan><tspan
         sodipodi:role="line"
         style="font-size:4.93889px;fill:#a60000;fill-opacity:1;stroke:none;stroke-width:0.529"
         x="375.54361"
         y="192.5486"
         id="tspan61" /></text><text
       xml:space="preserve"
       style="font-weight:bold;font-size:4.93889px;font-family:Arial;-inkscape-font-specification:'Arial Bold';opacity:1;fill:#a60000;fill-opacity:1;stroke:#000000;stroke-width:0.529;stroke-linecap:square;stroke-dasharray:none;stroke-dashoffset:0;stroke-opacity:1"
       x="268.9324"
       y="63.863579"
       id="text62"><tspan
         sodipodi:role="line"
         style="font-size:4.93889px;fill:#a60000;fill-opacity:1;stroke:none;stroke-width:0.529"
         x="268.9324"
         y="63.863579"
         id="tspan62">Alt Icon</tspan><tspan
         sodipodi:role="line"
         style="font-size:4.93889px;fill:#a60000;fill-opacity:1;stroke:none;stroke-width:0.529"
         x="268.9324"
         y="70.037193"
         id="tspan63">(unused)</tspan></text></g></svg>
